{
	"asset":{
		"generator":"Khronos glTF Blender I/O v5.0.21",
		"version":"2.0"
	},
	"scene":0,
	"scenes":[
		{
			"name":"Scene",
			"nodes":[
				0,
				1,
				2,
				3
			]
		}
	],
	"nodes":[
		{
			"mesh":0,
			"name":"\u307b\u3057\u306e\u3053",
			"translation":[
				0,
				0.003000000026077032,
				0
			]
		},
		{
			"mesh":1,
			"name":"\u6c34\u9762",
			"translation":[
				0,
				-0.0004000000189989805,
				0
			]
		},
		{
			"mesh":2,
			"name":"\u672c\u4f53"
		},
		{
			"mesh":3,
			"name":"\u9ed2\u67a0",
			"translation":[
				0,
				0.0007600000244565308,
				0
			]
		}
	],
	"materials":[
		{
			"alphaMode":"BLEND",
			"doubleSided":true,
			"name":"\u9ed2\u67a0",
			"pbrMetallicRoughness":{
				"baseColorTexture":{
					"index":0
				},
				"metallicFactor":0,
				"roughnessFactor":0.5
			}
		},
		{
			"alphaMode":"BLEND",
			"doubleSided":true,
			"name":"\u30b2\u30fc\u30c8\u5185",
			"pbrMetallicRoughness":{
				"metallicFactor":0,
				"roughnessFactor":0.5
			}
		},
		{
			"alphaMode":"BLEND",
			"name":"\u80cc\u666f.001",
			"pbrMetallicRoughness":{
				"baseColorTexture":{
					"index":1
				},
				"metallicFactor":0,
				"roughnessFactor":0.5
			}
		},
		{
			"name":"\u5074\u9762",
			"pbrMetallicRoughness":{
				"baseColorFactor":[
					0,
					0,
					0,
					1
				],
				"metallicFactor":0,
				"roughnessFactor":0.5
			}
		},
		{
			"alphaMode":"BLEND",
			"name":"\u88cf\u9762",
			"pbrMetallicRoughness":{
				"baseColorTexture":{
					"index":2
				},
				"metallicFactor":0,
				"roughnessFactor":0.5
			}
		},
		{
			"doubleSided":true,
			"name":"\u30de\u30c6\u30ea\u30a2\u30eb.002",
			"pbrMetallicRoughness":{
				"baseColorFactor":[
					0,
					0,
					0,
					1
				],
				"metallicFactor":0,
				"roughnessFactor":0.5
			}
		}
	],
	"meshes":[
		{
			"name":"\u5e73\u9762.001",
			"primitives":[
				{
					"attributes":{
						"POSITION":0,
						"NORMAL":1,
						"TEXCOORD_0":2
					},
					"indices":3,
					"material":0
				}
			]
		},
		{
			"name":"\u5e73\u9762.002",
			"primitives":[
				{
					"attributes":{
						"POSITION":4,
						"NORMAL":5,
						"TEXCOORD_0":6
					},
					"indices":3,
					"material":1
				}
			]
		},
		{
			"name":"\u5e73\u9762.003",
			"primitives":[
				{
					"attributes":{
						"POSITION":7,
						"NORMAL":8,
						"TEXCOORD_0":9
					},
					"indices":3,
					"material":2
				},
				{
					"attributes":{
						"POSITION":10,
						"NORMAL":11,
						"TEXCOORD_0":12
					},
					"indices":13,
					"material":3
				},
				{
					"attributes":{
						"POSITION":14,
						"NORMAL":15,
						"TEXCOORD_0":16
					},
					"indices":17,
					"material":4
				}
			]
		},
		{
			"name":"\u5e73\u9762.004",
			"primitives":[
				{
					"attributes":{
						"POSITION":18,
						"NORMAL":19,
						"TEXCOORD_0":20
					},
					"indices":21,
					"material":5
				}
			]
		}
	],
	"textures":[
		{
			"sampler":0,
			"source":0
		},
		{
			"sampler":0,
			"source":1
		},
		{
			"sampler":0,
			"source":2
		}
	],
	"images":[
		{
			"mimeType":"image/png",
			"name":"\u30ad\u30e3\u30e9\u306e\u307f\u8ffd\u52a0\uff585CC\u900f\u904e-02",
			"uri":"%E3%82%AD%E3%83%A3%E3%83%A9%E3%81%AE%E3%81%BF%E8%BF%BD%E5%8A%A0%EF%BD%985CC%E9%80%8F%E9%81%8E-02.png"
		},
		{
			"mimeType":"image/png",
			"name":"\u30cf\u30eb\u30b2\u30fc\u30c8\u6587\u5b57\u8ffd\u52a0x4\u4f4d\u7f6e\u8abf\u6574-01",
			"uri":"%E3%83%8F%E3%83%AB%E3%82%B2%E3%83%BC%E3%83%88%E6%96%87%E5%AD%97%E8%BF%BD%E5%8A%A0x4%E4%BD%8D%E7%BD%AE%E8%AA%BF%E6%95%B4-01.png"
		},
		{
			"mimeType":"image/png",
			"name":"\u30cf\u30eb\u88cf",
			"uri":"%E3%83%8F%E3%83%AB%E8%A3%8F.png"
		}
	],
	"accessors":[
		{
			"bufferView":0,
			"componentType":5126,
			"count":57,
			"max":[
				0.029500002041459084,
				-2.9103830456733704e-10,
				0.0430000014603138
			],
			"min":[
				-0.029500002041459084,
				-2.9103830456733704e-10,
				-0.0430000014603138
			],
			"type":"VEC3"
		},
		{
			"bufferView":1,
			"componentType":5126,
			"count":57,
			"type":"VEC3"
		},
		{
			"bufferView":2,
			"componentType":5126,
			"count":57,
			"type":"VEC2"
		},
		{
			"bufferView":3,
			"componentType":5123,
			"count":192,
			"type":"SCALAR"
		},
		{
			"bufferView":4,
			"componentType":5126,
			"count":57,
			"max":[
				0.029500002041459084,
				-2.9103830456733704e-10,
				0.0430000014603138
			],
			"min":[
				-0.029500002041459084,
				-2.9103830456733704e-10,
				-0.0430000014603138
			],
			"type":"VEC3"
		},
		{
			"bufferView":5,
			"componentType":5126,
			"count":57,
			"type":"VEC3"
		},
		{
			"bufferView":6,
			"componentType":5126,
			"count":57,
			"type":"VEC2"
		},
		{
			"bufferView":7,
			"componentType":5126,
			"count":57,
			"max":[
				0.029500002041459084,
				0.0007499989005737007,
				0.0430000014603138
			],
			"min":[
				-0.029500002041459084,
				0.0007499989005737007,
				-0.0430000014603138
			],
			"type":"VEC3"
		},
		{
			"bufferView":8,
			"componentType":5126,
			"count":57,
			"type":"VEC3"
		},
		{
			"bufferView":9,
			"componentType":5126,
			"count":57,
			"type":"VEC2"
		},
		{
			"bufferView":10,
			"componentType":5126,
			"count":184,
			"max":[
				0.029500002041459084,
				0.0007499989005737007,
				0.0430000014603138
			],
			"min":[
				-0.029500002041459084,
				-0.0007499995408579707,
				-0.0430000014603138
			],
			"type":"VEC3"
		},
		{
			"bufferView":11,
			"componentType":5126,
			"count":184,
			"type":"VEC3"
		},
		{
			"bufferView":12,
			"componentType":5126,
			"count":184,
			"type":"VEC2"
		},
		{
			"bufferView":13,
			"componentType":5123,
			"count":288,
			"type":"SCALAR"
		},
		{
			"bufferView":14,
			"componentType":5126,
			"count":57,
			"max":[
				0.029500002041459084,
				-0.0007499995408579707,
				0.0430000014603138
			],
			"min":[
				-0.029500002041459084,
				-0.0007499995408579707,
				-0.0430000014603138
			],
			"type":"VEC3"
		},
		{
			"bufferView":15,
			"componentType":5126,
			"count":57,
			"type":"VEC3"
		},
		{
			"bufferView":16,
			"componentType":5126,
			"count":57,
			"type":"VEC2"
		},
		{
			"bufferView":17,
			"componentType":5123,
			"count":192,
			"type":"SCALAR"
		},
		{
			"bufferView":18,
			"componentType":5126,
			"count":25,
			"max":[
				0.029500002041459084,
				-2.6797986052429223e-10,
				0.0430000014603138
			],
			"min":[
				1.6247264644775328e-09,
				-2.9103830456733704e-10,
				0
			],
			"type":"VEC3"
		},
		{
			"bufferView":19,
			"componentType":5126,
			"count":25,
			"type":"VEC3"
		},
		{
			"bufferView":20,
			"componentType":5126,
			"count":25,
			"type":"VEC2"
		},
		{
			"bufferView":21,
			"componentType":5123,
			"count":69,
			"type":"SCALAR"
		}
	],
	"bufferViews":[
		{
			"buffer":0,
			"byteLength":684,
			"byteOffset":0,
			"target":34962
		},
		{
			"buffer":0,
			"byteLength":684,
			"byteOffset":684,
			"target":34962
		},
		{
			"buffer":0,
			"byteLength":456,
			"byteOffset":1368,
			"target":34962
		},
		{
			"buffer":0,
			"byteLength":384,
			"byteOffset":1824,
			"target":34963
		},
		{
			"buffer":0,
			"byteLength":684,
			"byteOffset":2208,
			"target":34962
		},
		{
			"buffer":0,
			"byteLength":684,
			"byteOffset":2892,
			"target":34962
		},
		{
			"buffer":0,
			"byteLength":456,
			"byteOffset":3576,
			"target":34962
		},
		{
			"buffer":0,
			"byteLength":684,
			"byteOffset":4032,
			"target":34962
		},
		{
			"buffer":0,
			"byteLength":684,
			"byteOffset":4716,
			"target":34962
		},
		{
			"buffer":0,
			"byteLength":456,
			"byteOffset":5400,
			"target":34962
		},
		{
			"buffer":0,
			"byteLength":2208,
			"byteOffset":5856,
			"target":34962
		},
		{
			"buffer":0,
			"byteLength":2208,
			"byteOffset":8064,
			"target":34962
		},
		{
			"buffer":0,
			"byteLength":1472,
			"byteOffset":10272,
			"target":34962
		},
		{
			"buffer":0,
			"byteLength":576,
			"byteOffset":11744,
			"target":34963
		},
		{
			"buffer":0,
			"byteLength":684,
			"byteOffset":12320,
			"target":34962
		},
		{
			"buffer":0,
			"byteLength":684,
			"byteOffset":13004,
			"target":34962
		},
		{
			"buffer":0,
			"byteLength":456,
			"byteOffset":13688,
			"target":34962
		},
		{
			"buffer":0,
			"byteLength":384,
			"byteOffset":14144,
			"target":34963
		},
		{
			"buffer":0,
			"byteLength":300,
			"byteOffset":14528,
			"target":34962
		},
		{
			"buffer":0,
			"byteLength":300,
			"byteOffset":14828,
			"target":34962
		},
		{
			"buffer":0,
			"byteLength":200,
			"byteOffset":15128,
			"target":34962
		},
		{
			"buffer":0,
			"byteLength":138,
			"byteOffset":15328,
			"target":34963
		}
	],
	"samplers":[
		{
			"magFilter":9729,
			"minFilter":9987
		}
	],
	"buffers":[
		{
			"byteLength":15468,
			"uri":"%E3%82%B3%E3%83%AC%E3%82%AB%E3%83%8F%E3%83%AB%E3%81%95%E3%82%93.bin"
		}
	]
}
